<?xml version="1.0" encoding="UTF-8"?>
<svg id="arm" xmlns="http://www.w3.org/2000/svg" viewBox="0 0 16.004 16.02">
  <defs>
    <style>
      .cls-1 {
        fill: #000;
      }

      .cls-1, .cls-2, .cls-3, .cls-4, .cls-5, .cls-6 {
        stroke-width: 0px;
      }

      .cls-2 {
        fill: #88b8f8;
      }

      .cls-3 {
        fill: #3048e0;
      }

      .cls-4 {
        fill: #a8a8a8;
      }

      .cls-5 {
        fill: #606060;
      }

      .cls-6 {
        fill: #f0f0f0;
      }
    </style>
  </defs>
  <rect class="cls-5" x="14.004" y="14.02" width="1" height="1"/>
  <polygon class="cls-4" points="13.004 14.02 12.004 14.02 11.004 14.02 10.004 14.02 9.004 14.02 8.004 14.02 7.004 14.02 6.004 14.02 5.004 14.02 4.004 14.02 3.004 14.02 2.004 14.02 2.004 15.02 3.004 15.02 4.004 15.02 5.004 15.02 6.004 15.02 7.004 15.02 8.004 15.02 9.004 15.02 10.004 15.02 11.004 15.02 12.004 15.02 13.004 15.02 14.004 15.02 14.004 14.02 13.004 14.02"/>
  <rect class="cls-5" x="1.004" y="14.02" width="1" height="1"/>
  <g>
    <polygon class="cls-2" points="11.004 11.02 11.004 12.02 11.004 13.02 12.004 13.02 12.004 12.02 12.004 11.02 12.004 10.02 11.004 10.02 11.004 11.02"/>
    <polygon class="cls-2" points="7.004 10.02 7.004 11.02 7.004 12.02 8.004 12.02 9.004 12.02 9.004 11.02 9.004 10.02 8.004 10.02 7.004 10.02"/>
    <polygon class="cls-2" points="4.004 11.02 4.004 12.02 4.004 13.02 5.004 13.02 5.004 12.02 5.004 11.02 5.004 10.02 4.004 10.02 4.004 11.02"/>
    <rect class="cls-2" x="10.004" y="8.02" width="1" height="1"/>
    <rect class="cls-2" x="5.004" y="8.02" width="1" height="1"/>
    <polygon class="cls-2" points="4.004 7.02 4.004 6.02 4.004 5.02 3.004 5.02 3.004 6.02 3.004 7.02 3.004 8.02 4.004 8.02 4.004 7.02"/>
    <polygon class="cls-2" points="9.004 7.02 10.004 7.02 10.004 6.02 10.004 5.02 9.004 5.02 9.004 6.02 9.004 7.02"/>
    <polygon class="cls-2" points="12.004 5.02 12.004 6.02 12.004 7.02 12.004 8.02 13.004 8.02 13.004 7.02 13.004 6.02 13.004 5.02 12.004 5.02"/>
    <polygon class="cls-2" points="6.004 6.02 6.004 7.02 7.004 7.02 7.004 6.02 7.004 5.02 6.004 5.02 6.004 6.02"/>
    <polygon class="cls-2" points="8.004 4.02 7.004 4.02 7.004 5.02 8.004 5.02 9.004 5.02 9.004 4.02 8.004 4.02"/>
  </g>
  <g>
    <polygon class="cls-3" points="7.004 12.02 7.004 13.02 8.004 13.02 9.004 13.02 9.004 12.02 8.004 12.02 7.004 12.02"/>
    <rect class="cls-3" x="12.004" y="8.02" width="1" height="1"/>
    <rect class="cls-3" x="9.004" y="8.02" width="1" height="1"/>
    <rect class="cls-3" x="6.004" y="8.02" width="1" height="1"/>
    <rect class="cls-3" x="3.004" y="8.02" width="1" height="1"/>
    <polygon class="cls-3" points="10.004 7.02 10.004 8.02 11.004 8.02 11.004 7.02 11.004 6.02 10.004 6.02 10.004 7.02"/>
    <polygon class="cls-3" points="6.004 6.02 5.004 6.02 5.004 7.02 5.004 8.02 6.004 8.02 6.004 7.02 6.004 6.02"/>
    <rect class="cls-3" x="9.004" y="4.02" width="1" height="1"/>
    <rect class="cls-3" x="6.004" y="4.02" width="1" height="1"/>
    <polygon class="cls-3" points="9.004 4.02 9.004 3.02 8.004 3.02 7.004 3.02 7.004 4.02 8.004 4.02 9.004 4.02"/>
  </g>
  <rect class="cls-5" x="14.004" y="1.02" width="1" height="1"/>
  <g>
    <polygon class="cls-6" points="9.004 6.02 9.004 5.02 8.004 5.02 7.004 5.02 7.004 6.02 7.004 7.02 6.004 7.02 6.004 8.02 7.004 8.02 7.004 9.02 7.004 10.02 8.004 10.02 9.004 10.02 9.004 9.02 9.004 8.02 10.004 8.02 10.004 7.02 9.004 7.02 9.004 6.02"/>
    <rect class="cls-6" x="12.004" y="4.02" width="1" height="1"/>
    <rect class="cls-6" x="3.004" y="4.02" width="1" height="1"/>
    <polygon class="cls-6" points="14.004 2.02 14.004 3.02 14.004 4.02 14.004 5.02 14.004 6.02 14.004 7.02 14.004 8.02 14.004 9.02 14.004 10.02 14.004 11.02 14.004 12.02 14.004 13.02 14.004 14.02 15.004 14.02 15.004 13.02 15.004 12.02 15.004 11.02 15.004 10.02 15.004 9.02 15.004 8.02 15.004 7.02 15.004 6.02 15.004 5.02 15.004 4.02 15.004 3.02 15.004 2.02 14.004 2.02"/>
    <polygon class="cls-6" points="1.004 3.02 1.004 4.02 1.004 5.02 1.004 6.02 1.004 7.02 1.004 8.02 1.004 9.02 1.004 10.02 1.004 11.02 1.004 12.02 1.004 13.02 1.004 14.02 2.004 14.02 2.004 13.02 2.004 12.02 2.004 11.02 2.004 10.02 2.004 9.02 2.004 8.02 2.004 7.02 2.004 6.02 2.004 5.02 2.004 4.02 2.004 3.02 2.004 2.02 1.004 2.02 1.004 3.02"/>
    <polygon class="cls-6" points="13.004 1.02 12.004 1.02 11.004 1.02 10.004 1.02 9.004 1.02 8.004 1.02 7.004 1.02 6.004 1.02 5.004 1.02 4.004 1.02 3.004 1.02 2.004 1.02 2.004 2.02 3.004 2.02 4.004 2.02 5.004 2.02 6.004 2.02 7.004 2.02 8.004 2.02 9.004 2.02 10.004 2.02 11.004 2.02 12.004 2.02 13.004 2.02 14.004 2.02 14.004 1.02 13.004 1.02"/>
  </g>
  <rect class="cls-5" x="1.004" y="1.02" width="1" height="1"/>
  <g>
    <polygon class="cls-1" points="13.004 15.02 12.004 15.02 11.004 15.02 10.004 15.02 9.004 15.02 8.004 15.02 7.004 15.02 6.004 15.02 5.004 15.02 4.004 15.02 3.004 15.02 2.004 15.02 1.004 15.02 1.004 16.02 2.004 16.02 3.004 16.02 4.004 16.02 5.004 16.02 6.004 16.02 7.004 16.02 8.004 16.02 9.004 16.02 10.004 16.02 11.004 16.02 12.004 16.02 13.004 16.02 14.004 16.02 15.004 16.02 15.004 15.02 14.004 15.02 13.004 15.02"/>
    <polygon class="cls-1" points="1.004 13.02 1.004 12.02 1.004 11.02 1.004 10.02 1.004 9.02 1.004 8.02 1.004 7.02 1.004 6.02 1.004 5.02 1.004 4.02 1.004 3.02 1.004 2.02 1.004 1.02 .004 1.02 .004 2.02 .004 3.02 .004 4.02 .004 5.02 .004 6.02 .004 7.02 .004 8.02 .004 9.02 .004 10.02 .004 11.02 .004 12.02 .004 13.02 .004 14.02 .004 15.02 1.004 15.02 1.004 14.02 1.004 13.02"/>
    <path class="cls-1" d="M12.004,2.02H2.004v12h12V2.02h-2ZM3.004,8.02v-4h1v5h-1v-1ZM4.004,13.02v-3h1v3h-1ZM8.004,13.02h-1v-4h-2v-3h1v-2h1v-1h2v1h1v2h1v3h-2v4h-1ZM11.004,13.02v-3h1v3h-1ZM13.004,5.02v4h-1v-5h1v1Z"/>
    <polygon class="cls-1" points="15.004 1.02 15.004 2.02 15.004 3.02 15.004 4.02 15.004 5.02 15.004 6.02 15.004 7.02 15.004 8.02 15.004 9.02 15.004 10.02 15.004 11.02 15.004 12.02 15.004 13.02 15.004 14.02 15.004 15.02 16.004 15.02 16.004 14.02 16.004 13.02 16.004 12.02 16.004 11.02 16.004 10.02 16.004 9.02 16.004 8.02 16.004 7.02 16.004 6.02 16.004 5.02 16.004 4.02 16.004 3.02 16.004 2.02 16.004 1.02 15.004 1.02"/>
    <polygon class="cls-1" points="3.004 1.02 4.004 1.02 5.004 1.02 6.004 1.02 7.004 1.02 8.004 1.02 9.004 1.02 10.004 1.02 11.004 1.02 12.004 1.02 13.004 1.02 14.004 1.02 15.004 1.02 15.004 .02 14.004 .02 13.004 .02 12.004 .02 11.004 .02 10.004 .02 9.004 .02 8.004 .02 7.004 .02 6.004 .02 5.004 .02 4.004 .02 3.004 .02 2.004 .02 1.004 .02 1.004 1.02 2.004 1.02 3.004 1.02"/>
  </g>
</svg>