<?xml version="1.0" encoding="UTF-8"?>
<svg id="digit" xmlns="http://www.w3.org/2000/svg" viewBox="0 0 16 16">
  <defs>
    <style>
      .cls-1 {
        fill: #f0f0f0;
      }

      .cls-2 {
        fill: #88b8f8;
      }

      .cls-3 {
        fill: #3048e0;
      }

      .cls-4 {
        fill: #606060;
      }

      .cls-5 {
        fill: #a8a8a8;
      }
    </style>
  </defs>
  <rect class="cls-4" x="14" y="14" width="1" height="1"/>
  <polygon class="cls-5" points="13 14 12 14 11 14 10 14 9 14 8 14 7 14 6 14 5 14 4 14 3 14 2 14 2 15 3 15 4 15 5 15 6 15 7 15 8 15 9 15 10 15 11 15 12 15 13 15 14 15 14 14 13 14"/>
  <rect class="cls-4" x="1" y="14" width="1" height="1"/>
  <g>
    <polygon class="cls-2" points="11 11 11 12 11 13 12 13 12 12 12 11 12 10 11 10 11 11"/>
    <polygon class="cls-2" points="7 10 7 11 7 12 8 12 9 12 9 11 9 10 8 10 7 10"/>
    <polygon class="cls-2" points="4 11 4 12 4 13 5 13 5 12 5 11 5 10 4 10 4 11"/>
    <rect class="cls-2" x="10" y="8" width="1" height="1"/>
    <rect class="cls-2" x="5" y="8" width="1" height="1"/>
    <polygon class="cls-2" points="4 7 4 6 4 5 3 5 3 6 3 7 3 8 4 8 4 7"/>
    <polygon class="cls-2" points="9 7 10 7 10 6 10 5 9 5 9 6 9 7"/>
    <polygon class="cls-2" points="12 5 12 6 12 7 12 8 13 8 13 7 13 6 13 5 12 5"/>
    <polygon class="cls-2" points="6 6 6 7 7 7 7 6 7 5 6 5 6 6"/>
    <polygon class="cls-2" points="8 4 7 4 7 5 8 5 9 5 9 4 8 4"/>
  </g>
  <g>
    <polygon class="cls-3" points="7 12 7 13 8 13 9 13 9 12 8 12 7 12"/>
    <rect class="cls-3" x="12" y="8" width="1" height="1"/>
    <rect class="cls-3" x="9" y="8" width="1" height="1"/>
    <rect class="cls-3" x="6" y="8" width="1" height="1"/>
    <rect class="cls-3" x="3" y="8" width="1" height="1"/>
    <polygon class="cls-3" points="10 7 10 8 11 8 11 7 11 6 10 6 10 7"/>
    <polygon class="cls-3" points="6 6 5 6 5 7 5 8 6 8 6 7 6 6"/>
    <rect class="cls-3" x="9" y="4" width="1" height="1"/>
    <rect class="cls-3" x="6" y="4" width="1" height="1"/>
    <polygon class="cls-3" points="9 4 9 3 8 3 7 3 7 4 8 4 9 4"/>
  </g>
  <rect class="cls-4" x="14" y="1" width="1" height="1"/>
  <g>
    <polygon class="cls-1" points="9 6 9 5 8 5 7 5 7 6 7 7 6 7 6 8 7 8 7 9 7 10 8 10 9 10 9 9 9 8 10 8 10 7 9 7 9 6"/>
    <rect class="cls-1" x="12" y="4" width="1" height="1"/>
    <rect class="cls-1" x="3" y="4" width="1" height="1"/>
    <polygon class="cls-1" points="14 2 14 3 14 4 14 5 14 6 14 7 14 8 14 9 14 10 14 11 14 12 14 13 14 14 15 14 15 13 15 12 15 11 15 10 15 9 15 8 15 7 15 6 15 5 15 4 15 3 15 2 14 2"/>
    <polygon class="cls-1" points="1 3 1 4 1 5 1 6 1 7 1 8 1 9 1 10 1 11 1 12 1 13 1 14 2 14 2 13 2 12 2 11 2 10 2 9 2 8 2 7 2 6 2 5 2 4 2 3 2 2 1 2 1 3"/>
    <polygon class="cls-1" points="13 1 12 1 11 1 10 1 9 1 8 1 7 1 6 1 5 1 4 1 3 1 2 1 2 2 3 2 4 2 5 2 6 2 7 2 8 2 9 2 10 2 11 2 12 2 13 2 14 2 14 1 13 1"/>
  </g>
  <rect class="cls-4" x="1" y="1" width="1" height="1"/>
  <g>
    <polygon points="13 15 12 15 11 15 10 15 9 15 8 15 7 15 6 15 5 15 4 15 3 15 2 15 1 15 1 16 2 16 3 16 4 16 5 16 6 16 7 16 8 16 9 16 10 16 11 16 12 16 13 16 14 16 15 16 15 15 14 15 13 15"/>
    <polygon points="1 13 1 12 1 11 1 10 1 9 1 8 1 7 1 6 1 5 1 4 1 3 1 2 1 1 0 1 0 2 0 3 0 4 0 5 0 6 0 7 0 8 0 9 0 10 0 11 0 12 0 13 0 14 0 15 1 15 1 14 1 13"/>
    <path d="m12,2H2v12h12V2h-2ZM3,8V4h1v5h-1v-1Zm1,5v-3h1v3h-1Zm4,0h-1v-4h-2v-3h1v-2h1v-1h2v1h1v2h1v3h-2v4h-1Zm3,0v-3h1v3h-1Zm2-8v4h-1V4h1v1Z"/>
    <polygon points="15 1 15 2 15 3 15 4 15 5 15 6 15 7 15 8 15 9 15 10 15 11 15 12 15 13 15 14 15 15 16 15 16 14 16 13 16 12 16 11 16 10 16 9 16 8 16 7 16 6 16 5 16 4 16 3 16 2 16 1 15 1"/>
    <polygon points="3 1 4 1 5 1 6 1 7 1 8 1 9 1 10 1 11 1 12 1 13 1 14 1 15 1 15 0 14 0 13 0 12 0 11 0 10 0 9 0 8 0 7 0 6 0 5 0 4 0 3 0 2 0 1 0 1 1 2 1 3 1"/>
  </g>
</svg>