<?xml version="1.0" encoding="UTF-8"?>
<svg id="foot" xmlns="http://www.w3.org/2000/svg" viewBox="0 0 16.004 16.02">
  <defs>
    <style>
      .cls-1 {
        fill: #000;
      }

      .cls-1, .cls-2, .cls-3, .cls-4, .cls-5, .cls-6 {
        stroke-width: 0px;
      }

      .cls-2 {
        fill: #a8a8a8;
      }

      .cls-3 {
        fill: #f088b8;
      }

      .cls-4 {
        fill: #606060;
      }

      .cls-5 {
        fill: #28e050;
      }

      .cls-6 {
        fill: #f0f0f0;
      }
    </style>
  </defs>
  <rect class="cls-4" x="14" y="14.012" width="1" height="1"/>
  <rect class="cls-4" x="1" y="14.012" width="1" height="1"/>
  <g>
    <polygon class="cls-5" points="9 10.012 8 10.012 7 10.012 7 11.012 6 11.012 6 12.012 7 12.012 8 12.012 9 12.012 10 12.012 10 11.012 9 11.012 9 10.012"/>
    <polygon class="cls-5" points="6 8.012 6 7.012 5 7.012 5 6.012 4 6.012 4 7.012 4 8.012 4 9.012 4 10.012 5 10.012 5 9.012 6 9.012 6 8.012"/>
    <polygon class="cls-5" points="11 6.012 11 7.012 10 7.012 10 8.012 10 9.012 11 9.012 11 10.012 12 10.012 12 9.012 12 8.012 12 7.012 12 6.012 11 6.012"/>
    <polygon class="cls-5" points="7 6.012 8 6.012 9 6.012 9 5.012 10 5.012 10 4.012 9 4.012 8 4.012 7 4.012 6 4.012 6 5.012 7 5.012 7 6.012"/>
  </g>
  <g>
    <polygon class="cls-3" points="12 12.012 11 12.012 11 13.012 12 13.012 13 13.012 13 12.012 13 11.012 12 11.012 12 12.012"/>
    <polygon class="cls-3" points="4 11.012 3 11.012 3 12.012 3 13.012 4 13.012 5 13.012 5 12.012 4 12.012 4 11.012"/>
    <polygon class="cls-3" points="12 3.012 11 3.012 11 4.012 12 4.012 12 5.012 13 5.012 13 4.012 13 3.012 12 3.012"/>
    <polygon class="cls-3" points="3 3.012 3 4.012 3 5.012 4 5.012 4 4.012 5 4.012 5 3.012 4 3.012 3 3.012"/>
  </g>
  <g>
    <polygon class="cls-2" points="12 14.012 11 14.012 10 14.012 9 14.012 8 14.012 7 14.012 6 14.012 5 14.012 4 14.012 3 14.012 2 14.012 2 15.012 3 15.012 4 15.012 5 15.012 6 15.012 7 15.012 8 15.012 9 15.012 10 15.012 11 15.012 12 15.012 13 15.012 14 15.012 14 14.012 13 14.012 12 14.012"/>
    <polygon class="cls-2" points="14 2.012 14 3.012 14 4.012 14 5.012 14 6.012 14 7.012 14 8.012 14 9.012 14 10.012 14 11.012 14 12.012 14 13.012 14 14.012 15 14.012 15 13.012 15 12.012 15 11.012 15 10.012 15 9.012 15 8.012 15 7.012 15 6.012 15 5.012 15 4.012 15 3.012 15 2.012 14 2.012"/>
  </g>
  <rect class="cls-4" x="14" y="1.012" width="1" height="1"/>
  <g>
    <polygon class="cls-6" points="1 3.012 1 4.012 1 5.012 1 6.012 1 7.012 1 8.012 1 9.012 1 10.012 1 11.012 1 12.012 1 13.012 1 14.012 2 14.012 2 13.012 2 12.012 2 11.012 2 10.012 2 9.012 2 8.012 2 7.012 2 6.012 2 5.012 2 4.012 2 3.012 2 2.012 1 2.012 1 3.012"/>
    <polygon class="cls-6" points="13 1.012 12 1.012 11 1.012 10 1.012 9 1.012 8 1.012 7 1.012 6 1.012 5 1.012 4 1.012 3 1.012 2 1.012 2 2.012 3 2.012 4 2.012 5 2.012 6 2.012 7 2.012 8 2.012 9 2.012 10 2.012 11 2.012 12 2.012 13 2.012 14 2.012 14 1.012 13 1.012"/>
  </g>
  <rect class="cls-4" x="1" y="1.012" width="1" height="1"/>
  <g>
    <polygon class="cls-1" points="13 15.012 12 15.012 11 15.012 10 15.012 9 15.012 8 15.012 7 15.012 6 15.012 5 15.012 4 15.012 3 15.012 2 15.012 1 15.012 1 16.012 2 16.012 3 16.012 4 16.012 5 16.012 6 16.012 7 16.012 8 16.012 9 16.012 10 16.012 11 16.012 12 16.012 13 16.012 14 16.012 15 16.012 15 15.012 14 15.012 13 15.012"/>
    <polygon class="cls-1" points="1 13.012 1 12.012 1 11.012 1 10.012 1 9.012 1 8.012 1 7.012 1 6.012 1 5.012 1 4.012 1 3.012 1 2.012 1 1.012 0 1.012 0 2.012 0 3.012 0 4.012 0 5.012 0 6.012 0 7.012 0 8.012 0 9.012 0 10.012 0 11.012 0 12.012 0 13.012 0 14.012 0 15.012 1 15.012 1 14.012 1 13.012"/>
    <path class="cls-1" d="M12,2.012H2v12h12V2.012h-2ZM12,7.012v3h-1v-1h-1v-2h1v-1h1v1ZM10,12.012h-4v-1h1v-1h2v1h1v1ZM4,9.012v-3h1v1h1v2h-1v1h-1v-1ZM10,5.012h-1v1h-2v-1h-1v-1h4v1ZM3,4.012v-1h2v1h-1v1h-1v-1ZM4,13.012h-1v-2h1v1h1v1h-1ZM13,12.012v1h-2v-1h1v-1h1v1ZM13,4.012v1h-1v-1h-1v-1h2v1Z"/>
    <polygon class="cls-1" points="15 1.012 15 2.012 15 3.012 15 4.012 15 5.012 15 6.012 15 7.012 15 8.012 15 9.012 15 10.012 15 11.012 15 12.012 15 13.012 15 14.012 15 15.012 16 15.012 16 14.012 16 13.012 16 12.012 16 11.012 16 10.012 16 9.012 16 8.012 16 7.012 16 6.012 16 5.012 16 4.012 16 3.012 16 2.012 16 1.012 15 1.012"/>
    <polygon class="cls-1" points="3 1.012 4 1.012 5 1.012 6 1.012 7 1.012 8 1.012 9 1.012 10 1.012 11 1.012 12 1.012 13 1.012 14 1.012 15 1.012 15 .012 14 .012 13 .012 12 .012 11 .012 10 .012 9 .012 8 .012 7 .012 6 .012 5 .012 4 .012 3 .012 2 .012 1 .012 1 1.012 2 1.012 3 1.012"/>
  </g>
</svg>