<?xml version="1.0" encoding="UTF-8"?>
<svg id="insect_foot" xmlns="http://www.w3.org/2000/svg" viewBox="0 0 16 16">
  <defs>
    <style>
      .cls-1 {
        fill: #181818;
      }

      .cls-2 {
        fill: #f090e0;
      }

      .cls-3 {
        fill: #2878e8;
      }

      .cls-4 {
        fill: #28d0f8;
      }

      .cls-5 {
        fill: #d83028;
      }

      .cls-6 {
        fill: #f8f8f8;
      }
    </style>
  </defs>
  <rect class="cls-2" x="9.996" y="10.98" width="1" height="1"/>
  <rect class="cls-2" x="10.996" y="9.98" width="1" height="1"/>
  <g>
    <polygon class="cls-5" points="11.996 9.98 11.996 10.98 10.996 10.98 10.996 11.98 9.996 11.98 9.996 12.98 10.996 12.98 11.996 12.98 11.996 11.98 12.996 11.98 12.996 10.98 12.996 9.98 11.996 9.98"/>
    <polygon class="cls-5" points="9.996 9.98 10.996 9.98 11.996 9.98 11.996 8.98 10.996 8.98 9.996 8.98 8.996 8.98 8.996 9.98 8.996 10.98 8.996 11.98 9.996 11.98 9.996 10.98 9.996 9.98"/>
  </g>
  <g>
    <polygon class="cls-3" points="6.996 11.98 5.996 11.98 4.996 11.98 4.996 12.98 5.996 12.98 6.996 12.98 7.996 12.98 8.996 12.98 8.996 11.98 7.996 11.98 6.996 11.98"/>
    <rect class="cls-3" x="3.996" y="10.98" width="1" height="1"/>
    <rect class="cls-3" x="2.996" y="9.98" width="1" height="1"/>
    <polygon class="cls-3" points="11.996 4.98 11.996 5.98 11.996 6.98 11.996 7.98 11.996 8.98 12.996 8.98 12.996 7.98 12.996 6.98 12.996 5.98 12.996 4.98 11.996 4.98"/>
    <rect class="cls-3" x="10.996" y="3.98" width="1" height="1"/>
    <rect class="cls-3" x="9.996" y="2.98" width="1" height="1"/>
  </g>
  <g>
    <polygon class="cls-4" points="4.996 10.98 4.996 11.98 5.996 11.98 6.996 11.98 6.996 10.98 5.996 10.98 4.996 10.98"/>
    <rect class="cls-4" x="3.996" y="9.98" width="1" height="1"/>
    <rect class="cls-4" x="2.996" y="8.98" width="1" height="1"/>
    <rect class="cls-4" x="2.996" y="5.98" width="1" height="1"/>
    <polygon class="cls-4" points="10.996 4.98 10.996 5.98 10.996 6.98 11.996 6.98 11.996 5.98 11.996 4.98 10.996 4.98"/>
    <rect class="cls-4" x="9.996" y="3.98" width="1" height="1"/>
    <rect class="cls-4" x="8.996" y="2.98" width="1" height="1"/>
    <rect class="cls-4" x="5.996" y="2.98" width="1" height="1"/>
  </g>
  <g>
    <rect class="cls-6" x="9.996" y="9.98" width="1" height="1"/>
    <polygon class="cls-6" points="5.996 9.98 5.996 8.98 4.996 8.98 4.996 7.98 3.996 7.98 3.996 6.98 2.996 6.98 2.996 7.98 2.996 8.98 3.996 8.98 3.996 9.98 4.996 9.98 4.996 10.98 5.996 10.98 6.996 10.98 6.996 11.98 7.996 11.98 7.996 10.98 7.996 9.98 6.996 9.98 5.996 9.98"/>
    <polygon class="cls-6" points="10.996 5.98 10.996 4.98 9.996 4.98 9.996 3.98 8.996 3.98 8.996 2.98 7.996 2.98 6.996 2.98 6.996 3.98 7.996 3.98 7.996 4.98 8.996 4.98 8.996 5.98 9.996 5.98 9.996 6.98 9.996 7.98 10.996 7.98 11.996 7.98 11.996 6.98 10.996 6.98 10.996 5.98"/>
    <path class="cls-6" d="M13.996.98H.996v14h14V.98h-1ZM13.996,2.98v11H1.996V1.98h12v1Z"/>
  </g>
  <g>
    <polygon class="cls-1" points="12.996 14.98 11.996 14.98 10.996 14.98 9.996 14.98 8.996 14.98 7.996 14.98 6.996 14.98 5.996 14.98 4.996 14.98 3.996 14.98 2.996 14.98 1.996 14.98 .996 14.98 .996 15.98 1.996 15.98 2.996 15.98 3.996 15.98 4.996 15.98 5.996 15.98 6.996 15.98 7.996 15.98 8.996 15.98 9.996 15.98 10.996 15.98 11.996 15.98 12.996 15.98 13.996 15.98 14.996 15.98 14.996 14.98 13.996 14.98 12.996 14.98"/>
    <polygon class="cls-1" points=".996 12.98 .996 11.98 .996 10.98 .996 9.98 .996 8.98 .996 7.98 .996 6.98 .996 5.98 .996 4.98 .996 3.98 .996 2.98 .996 1.98 .996 .98 -.004 .98 -.004 1.98 -.004 2.98 -.004 3.98 -.004 4.98 -.004 5.98 -.004 6.98 -.004 7.98 -.004 8.98 -.004 9.98 -.004 10.98 -.004 11.98 -.004 12.98 -.004 13.98 -.004 14.98 .996 14.98 .996 13.98 .996 12.98"/>
    <path class="cls-1" d="M11.996,1.98H1.996v12h12V1.98h-2ZM12.996,5.98v3h-1v1h1v2h-1v1h-2v-1h-1v1h-4v-1h-1v-1h-1v-5h1v2h1v1h1v1h2v2h1v-3h3v-1h-2v-2h-1v-1h-1v-1h-2v-1h5v1h1v1h1v1Z"/>
    <polygon class="cls-1" points="14.996 .98 14.996 1.98 14.996 2.98 14.996 3.98 14.996 4.98 14.996 5.98 14.996 6.98 14.996 7.98 14.996 8.98 14.996 9.98 14.996 10.98 14.996 11.98 14.996 12.98 14.996 13.98 14.996 14.98 15.996 14.98 15.996 13.98 15.996 12.98 15.996 11.98 15.996 10.98 15.996 9.98 15.996 8.98 15.996 7.98 15.996 6.98 15.996 5.98 15.996 4.98 15.996 3.98 15.996 2.98 15.996 1.98 15.996 .98 14.996 .98"/>
    <polygon class="cls-1" points="2.996 .98 3.996 .98 4.996 .98 5.996 .98 6.996 .98 7.996 .98 8.996 .98 9.996 .98 10.996 .98 11.996 .98 12.996 .98 13.996 .98 14.996 .98 14.996 -.02 13.996 -.02 12.996 -.02 11.996 -.02 10.996 -.02 9.996 -.02 8.996 -.02 7.996 -.02 6.996 -.02 5.996 -.02 4.996 -.02 3.996 -.02 2.996 -.02 1.996 -.02 .996 -.02 .996 .98 1.996 .98 2.996 .98"/>
  </g>
</svg>