<?xml version="1.0" encoding="UTF-8"?>
<svg id="jaw" xmlns="http://www.w3.org/2000/svg" viewBox="0 0 16.004 16.02">
  <defs>
    <style>
      .cls-1 {
        fill: #c82810;
      }

      .cls-2 {
        fill: #f0f0f0;
      }

      .cls-3 {
        fill: #606060;
      }

      .cls-4 {
        fill: #a8a8a8;
      }

      .cls-5 {
        fill: #f8d820;
      }

      .cls-6 {
        fill: #f09048;
      }

      .cls-7 {
        fill: #701820;
      }
    </style>
  </defs>
  <rect class="cls-5" x="7" y="9.012" width="1" height="1"/>
  <rect class="cls-5" x="6" y="8.012" width="1" height="1"/>
  <g>
    <rect class="cls-6" x="5" y="11.012" width="1" height="1"/>
    <rect class="cls-6" x="7" y="10.012" width="1" height="1"/>
    <rect class="cls-6" x="4" y="10.012" width="1" height="1"/>
    <rect class="cls-6" x="8" y="9.012" width="1" height="1"/>
    <rect class="cls-6" x="6" y="9.012" width="1" height="1"/>
    <rect class="cls-6" x="7" y="8.012" width="1" height="1"/>
    <rect class="cls-6" x="5" y="8.012" width="1" height="1"/>
    <rect class="cls-6" x="6" y="7.012" width="1" height="1"/>
  </g>
  <g>
    <rect class="cls-1" x="6" y="11.012" width="1" height="1"/>
    <rect class="cls-1" x="4" y="11.012" width="1" height="1"/>
    <rect class="cls-1" x="8" y="10.012" width="1" height="1"/>
    <rect class="cls-1" x="5" y="10.012" width="1" height="1"/>
    <rect class="cls-1" x="4" y="9.012" width="1" height="1"/>
    <rect class="cls-1" x="5" y="7.012" width="1" height="1"/>
  </g>
  <g>
    <polygon class="cls-7" points="5 12.012 4 12.012 4 13.012 5 13.012 6 13.012 7 13.012 7 12.012 6 12.012 5 12.012"/>
    <polygon class="cls-7" points="7 11.012 7 12.012 8 12.012 9 12.012 9 11.012 8 11.012 7 11.012"/>
    <rect class="cls-7" x="9" y="10.012" width="1" height="1"/>
    <rect class="cls-7" x="6" y="10.012" width="1" height="1"/>
    <polygon class="cls-7" points="4 10.012 4 9.012 3 9.012 3 10.012 3 11.012 3 12.012 4 12.012 4 11.012 4 10.012"/>
    <rect class="cls-7" x="5" y="9.012" width="1" height="1"/>
    <polygon class="cls-7" points="5 8.012 5 7.012 4 7.012 4 8.012 4 9.012 5 9.012 5 8.012"/>
    <rect class="cls-7" x="5" y="6.012" width="1" height="1"/>
  </g>
  <g>
    <polygon class="cls-4" points="12 14.012 11 14.012 10 14.012 9 14.012 8 14.012 7 14.012 6 14.012 5 14.012 4 14.012 3 14.012 2 14.012 2 15.012 3 15.012 4 15.012 5 15.012 6 15.012 7 15.012 8 15.012 9 15.012 10 15.012 11 15.012 12 15.012 13 15.012 14 15.012 14 14.012 13 14.012 12 14.012"/>
    <rect class="cls-4" x="8" y="8.012" width="1" height="1"/>
    <rect class="cls-4" x="10" y="6.012" width="1" height="1"/>
    <rect class="cls-4" x="8" y="6.012" width="1" height="1"/>
    <rect class="cls-4" x="11" y="4.012" width="1" height="1"/>
    <polygon class="cls-4" points="14 2.012 14 3.012 14 4.012 14 5.012 14 6.012 14 7.012 14 8.012 14 9.012 14 10.012 14 11.012 14 12.012 14 13.012 14 14.012 15 14.012 15 13.012 15 12.012 15 11.012 15 10.012 15 9.012 15 8.012 15 7.012 15 6.012 15 5.012 15 4.012 15 3.012 15 2.012 14 2.012"/>
  </g>
  <g>
    <rect class="cls-2" x="8" y="7.012" width="1" height="1"/>
    <rect class="cls-2" x="10" y="5.012" width="1" height="1"/>
    <polygon class="cls-2" points="1 3.012 1 4.012 1 5.012 1 6.012 1 7.012 1 8.012 1 9.012 1 10.012 1 11.012 1 12.012 1 13.012 1 14.012 2 14.012 2 13.012 2 12.012 2 11.012 2 10.012 2 9.012 2 8.012 2 7.012 2 6.012 2 5.012 2 4.012 2 3.012 2 2.012 1 2.012 1 3.012"/>
    <polygon class="cls-2" points="13 1.012 12 1.012 11 1.012 10 1.012 9 1.012 8 1.012 7 1.012 6 1.012 5 1.012 4 1.012 3 1.012 2 1.012 2 2.012 3 2.012 4 2.012 5 2.012 6 2.012 7 2.012 8 2.012 9 2.012 10 2.012 11 2.012 12 2.012 13 2.012 14 2.012 14 1.012 13 1.012"/>
  </g>
  <g>
    <rect class="cls-3" x="14" y="14.012" width="1" height="1"/>
    <rect class="cls-3" x="1" y="14.012" width="1" height="1"/>
    <polygon class="cls-3" points="6 6.012 6 7.012 7 7.012 7 8.012 8 8.012 8 7.012 8 6.012 7 6.012 6 6.012"/>
    <rect class="cls-3" x="11" y="5.012" width="1" height="1"/>
    <polygon class="cls-3" points="8 5.012 8 6.012 9 6.012 9 7.012 9 8.012 9 9.012 9 10.012 10 10.012 10 9.012 10 8.012 11 8.012 11 7.012 10 7.012 10 6.012 10 5.012 9 5.012 8 5.012"/>
    <rect class="cls-3" x="10" y="4.012" width="1" height="1"/>
    <rect class="cls-3" x="12" y="3.012" width="1" height="1"/>
    <rect class="cls-3" x="14" y="1.012" width="1" height="1"/>
    <rect class="cls-3" x="1" y="1.012" width="1" height="1"/>
  </g>
  <g>
    <polygon points="13 15.012 12 15.012 11 15.012 10 15.012 9 15.012 8 15.012 7 15.012 6 15.012 5 15.012 4 15.012 3 15.012 2 15.012 1 15.012 1 16.012 2 16.012 3 16.012 4 16.012 5 16.012 6 16.012 7 16.012 8 16.012 9 16.012 10 16.012 11 16.012 12 16.012 13 16.012 14 16.012 15 16.012 15 15.012 14 15.012 13 15.012"/>
    <polygon points="1 13.012 1 12.012 1 11.012 1 10.012 1 9.012 1 8.012 1 7.012 1 6.012 1 5.012 1 4.012 1 3.012 1 2.012 1 1.012 0 1.012 0 2.012 0 3.012 0 4.012 0 5.012 0 6.012 0 7.012 0 8.012 0 9.012 0 10.012 0 11.012 0 12.012 0 13.012 0 14.012 0 15.012 1 15.012 1 14.012 1 13.012"/>
    <path d="M12,2.012H2v12h12V2.012h-2ZM13,4.012h-1v2h-1v2h-1v3h-1v1h-2v1h-3v-1h-1v-3h1v-2h1v-1h3v-1h2v-1h2v-1h1v1Z"/>
    <polygon points="15 1.012 15 2.012 15 3.012 15 4.012 15 5.012 15 6.012 15 7.012 15 8.012 15 9.012 15 10.012 15 11.012 15 12.012 15 13.012 15 14.012 15 15.012 16 15.012 16 14.012 16 13.012 16 12.012 16 11.012 16 10.012 16 9.012 16 8.012 16 7.012 16 6.012 16 5.012 16 4.012 16 3.012 16 2.012 16 1.012 15 1.012"/>
    <polygon points="3 1.012 4 1.012 5 1.012 6 1.012 7 1.012 8 1.012 9 1.012 10 1.012 11 1.012 12 1.012 13 1.012 14 1.012 15 1.012 15 .012 14 .012 13 .012 12 .012 11 .012 10 .012 9 .012 8 .012 7 .012 6 .012 5 .012 4 .012 3 .012 2 .012 1 .012 1 1.012 2 1.012 3 1.012"/>
  </g>
</svg>