<?xml version="1.0" encoding="UTF-8"?>
<svg id="spine" xmlns="http://www.w3.org/2000/svg" viewBox="0 0 16 16">
  <defs>
    <style>
      .cls-1 {
        fill: #f0f0f0;
      }

      .cls-2 {
        fill: #28e050;
      }

      .cls-3 {
        fill: #7040b0;
      }

      .cls-4 {
        fill: #606060;
      }

      .cls-5 {
        fill: #a8a8a8;
      }
    </style>
  </defs>
  <rect class="cls-4" x="13.996" y="13.992" width="1" height="1"/>
  <rect class="cls-4" x=".996" y="13.992" width="1" height="1"/>
  <g>
    <polygon class="cls-2" points="11.996 9.992 10.996 9.992 10.996 10.992 11.996 10.992 12.996 10.992 12.996 9.992 11.996 9.992"/>
    <polygon class="cls-2" points="6.996 9.992 6.996 10.992 7.996 10.992 8.996 10.992 8.996 9.992 7.996 9.992 6.996 9.992"/>
    <polygon class="cls-2" points="2.996 9.992 2.996 10.992 3.996 10.992 4.996 10.992 4.996 9.992 3.996 9.992 2.996 9.992"/>
    <polygon class="cls-2" points="10.996 7.992 10.996 6.992 9.996 6.992 8.996 6.992 8.996 7.992 8.996 8.992 8.996 9.992 9.996 9.992 10.996 9.992 10.996 8.992 10.996 7.992"/>
    <polygon class="cls-2" points="6.996 7.992 6.996 6.992 5.996 6.992 4.996 6.992 4.996 7.992 4.996 8.992 4.996 9.992 5.996 9.992 6.996 9.992 6.996 8.992 6.996 7.992"/>
  </g>
  <g>
    <polygon class="cls-3" points="8.996 9.992 8.996 10.992 7.996 10.992 6.996 10.992 6.996 9.992 5.996 9.992 4.996 9.992 4.996 10.992 3.996 10.992 2.996 10.992 2.996 11.992 3.996 11.992 4.996 11.992 5.996 11.992 6.996 11.992 7.996 11.992 8.996 11.992 9.996 11.992 10.996 11.992 11.996 11.992 12.996 11.992 12.996 10.992 11.996 10.992 10.996 10.992 10.996 9.992 9.996 9.992 8.996 9.992"/>
    <polygon class="cls-3" points="4.996 7.992 4.996 6.992 4.996 5.992 3.996 5.992 2.996 5.992 2.996 6.992 2.996 7.992 2.996 8.992 2.996 9.992 3.996 9.992 4.996 9.992 4.996 8.992 4.996 7.992"/>
    <polygon class="cls-3" points="10.996 7.992 10.996 8.992 10.996 9.992 11.996 9.992 12.996 9.992 12.996 8.992 12.996 7.992 12.996 6.992 12.996 5.992 11.996 5.992 10.996 5.992 10.996 6.992 10.996 7.992"/>
    <polygon class="cls-3" points="6.996 7.992 6.996 8.992 6.996 9.992 7.996 9.992 8.996 9.992 8.996 8.992 8.996 7.992 8.996 6.992 8.996 5.992 7.996 5.992 6.996 5.992 6.996 6.992 6.996 7.992"/>
    <polygon class="cls-3" points="11.996 4.992 12.996 4.992 12.996 3.992 11.996 3.992 10.996 3.992 9.996 3.992 8.996 3.992 7.996 3.992 6.996 3.992 5.996 3.992 4.996 3.992 3.996 3.992 2.996 3.992 2.996 4.992 3.996 4.992 4.996 4.992 4.996 5.992 5.996 5.992 6.996 5.992 6.996 4.992 7.996 4.992 8.996 4.992 8.996 5.992 9.996 5.992 10.996 5.992 10.996 4.992 11.996 4.992"/>
  </g>
  <g>
    <polygon class="cls-5" points="11.996 13.992 10.996 13.992 9.996 13.992 8.996 13.992 7.996 13.992 6.996 13.992 5.996 13.992 4.996 13.992 3.996 13.992 2.996 13.992 1.996 13.992 1.996 14.992 2.996 14.992 3.996 14.992 4.996 14.992 5.996 14.992 6.996 14.992 7.996 14.992 8.996 14.992 9.996 14.992 10.996 14.992 11.996 14.992 12.996 14.992 13.996 14.992 13.996 13.992 12.996 13.992 11.996 13.992"/>
    <polygon class="cls-5" points="13.996 1.992 13.996 2.992 13.996 3.992 13.996 4.992 13.996 5.992 13.996 6.992 13.996 7.992 13.996 8.992 13.996 9.992 13.996 10.992 13.996 11.992 13.996 12.992 13.996 13.992 14.996 13.992 14.996 12.992 14.996 11.992 14.996 10.992 14.996 9.992 14.996 8.992 14.996 7.992 14.996 6.992 14.996 5.992 14.996 4.992 14.996 3.992 14.996 2.992 14.996 1.992 13.996 1.992"/>
  </g>
  <rect class="cls-4" x="13.996" y=".992" width="1" height="1"/>
  <g>
    <polygon class="cls-1" points="8.996 5.992 8.996 6.992 9.996 6.992 10.996 6.992 10.996 5.992 9.996 5.992 8.996 5.992"/>
    <polygon class="cls-1" points="4.996 5.992 4.996 6.992 5.996 6.992 6.996 6.992 6.996 5.992 5.996 5.992 4.996 5.992"/>
    <polygon class="cls-1" points="10.996 4.992 10.996 5.992 11.996 5.992 12.996 5.992 12.996 4.992 11.996 4.992 10.996 4.992"/>
    <polygon class="cls-1" points="7.996 4.992 6.996 4.992 6.996 5.992 7.996 5.992 8.996 5.992 8.996 4.992 7.996 4.992"/>
    <polygon class="cls-1" points="3.996 4.992 2.996 4.992 2.996 5.992 3.996 5.992 4.996 5.992 4.996 4.992 3.996 4.992"/>
    <polygon class="cls-1" points=".996 2.992 .996 3.992 .996 4.992 .996 5.992 .996 6.992 .996 7.992 .996 8.992 .996 9.992 .996 10.992 .996 11.992 .996 12.992 .996 13.992 1.996 13.992 1.996 12.992 1.996 11.992 1.996 10.992 1.996 9.992 1.996 8.992 1.996 7.992 1.996 6.992 1.996 5.992 1.996 4.992 1.996 3.992 1.996 2.992 1.996 1.992 .996 1.992 .996 2.992"/>
    <polygon class="cls-1" points="12.996 .992 11.996 .992 10.996 .992 9.996 .992 8.996 .992 7.996 .992 6.996 .992 5.996 .992 4.996 .992 3.996 .992 2.996 .992 1.996 .992 1.996 1.992 2.996 1.992 3.996 1.992 4.996 1.992 5.996 1.992 6.996 1.992 7.996 1.992 8.996 1.992 9.996 1.992 10.996 1.992 11.996 1.992 12.996 1.992 13.996 1.992 13.996 .992 12.996 .992"/>
  </g>
  <rect class="cls-4" x=".996" y=".992" width="1" height="1"/>
  <g>
    <polygon points="12.996 14.992 11.996 14.992 10.996 14.992 9.996 14.992 8.996 14.992 7.996 14.992 6.996 14.992 5.996 14.992 4.996 14.992 3.996 14.992 2.996 14.992 1.996 14.992 .996 14.992 .996 15.992 1.996 15.992 2.996 15.992 3.996 15.992 4.996 15.992 5.996 15.992 6.996 15.992 7.996 15.992 8.996 15.992 9.996 15.992 10.996 15.992 11.996 15.992 12.996 15.992 13.996 15.992 14.996 15.992 14.996 14.992 13.996 14.992 12.996 14.992"/>
    <polygon points=".996 12.992 .996 11.992 .996 10.992 .996 9.992 .996 8.992 .996 7.992 .996 6.992 .996 5.992 .996 4.992 .996 3.992 .996 2.992 .996 1.992 .996 .992 -.004 .992 -.004 1.992 -.004 2.992 -.004 3.992 -.004 4.992 -.004 5.992 -.004 6.992 -.004 7.992 -.004 8.992 -.004 9.992 -.004 10.992 -.004 11.992 -.004 12.992 -.004 13.992 -.004 14.992 .996 14.992 .996 13.992 .996 12.992"/>
    <path d="m11.996,1.992H1.996v12h12V1.992h-2Zm1,3v7H2.996V3.992h10v1Z"/>
    <polygon points="14.996 .992 14.996 1.992 14.996 2.992 14.996 3.992 14.996 4.992 14.996 5.992 14.996 6.992 14.996 7.992 14.996 8.992 14.996 9.992 14.996 10.992 14.996 11.992 14.996 12.992 14.996 13.992 14.996 14.992 15.996 14.992 15.996 13.992 15.996 12.992 15.996 11.992 15.996 10.992 15.996 9.992 15.996 8.992 15.996 7.992 15.996 6.992 15.996 5.992 15.996 4.992 15.996 3.992 15.996 2.992 15.996 1.992 15.996 .992 14.996 .992"/>
    <polygon points="2.996 .992 3.996 .992 4.996 .992 5.996 .992 6.996 .992 7.996 .992 8.996 .992 9.996 .992 10.996 .992 11.996 .992 12.996 .992 13.996 .992 14.996 .992 14.996 -.008 13.996 -.008 12.996 -.008 11.996 -.008 10.996 -.008 9.996 -.008 8.996 -.008 7.996 -.008 6.996 -.008 5.996 -.008 4.996 -.008 3.996 -.008 2.996 -.008 1.996 -.008 .996 -.008 .996 .992 1.996 .992 2.996 .992"/>
  </g>
</svg>