<?xml version="1.0" encoding="UTF-8"?>
<svg id="stow" xmlns="http://www.w3.org/2000/svg" viewBox="0 0 16 16">
  <defs>
    <style>
      .cls-1 {
        fill: #000;
      }

      .cls-1, .cls-2, .cls-3, .cls-4, .cls-5 {
        stroke-width: 0px;
      }

      .cls-2 {
        fill: #f8d820;
      }

      .cls-3 {
        fill: #a8a8a8;
      }

      .cls-4 {
        fill: #606060;
      }

      .cls-5 {
        fill: #f0f0f0;
      }
    </style>
  </defs>
  <polygon class="cls-2" points="7.996 6.98 7.996 7.98 6.996 7.98 6.996 8.98 7.996 8.98 8.996 8.98 8.996 7.98 8.996 6.98 7.996 6.98"/>
  <g>
    <polygon class="cls-3" points="11.996 13.98 10.996 13.98 9.996 13.98 8.996 13.98 7.996 13.98 6.996 13.98 5.996 13.98 4.996 13.98 3.996 13.98 2.996 13.98 1.996 13.98 1.996 14.98 2.996 14.98 3.996 14.98 4.996 14.98 5.996 14.98 6.996 14.98 7.996 14.98 8.996 14.98 9.996 14.98 10.996 14.98 11.996 14.98 12.996 14.98 13.996 14.98 13.996 13.98 12.996 13.98 11.996 13.98"/>
    <polygon class="cls-3" points="11.996 7.98 11.996 6.98 10.996 6.98 10.996 7.98 10.996 8.98 11.996 8.98 11.996 7.98"/>
    <polygon class="cls-3" points="4.996 7.98 4.996 6.98 3.996 6.98 3.996 7.98 3.996 8.98 4.996 8.98 4.996 7.98"/>
    <polygon class="cls-3" points="13.996 1.98 13.996 2.98 13.996 3.98 13.996 4.98 13.996 5.98 13.996 6.98 13.996 7.98 13.996 8.98 13.996 9.98 13.996 10.98 13.996 11.98 13.996 12.98 13.996 13.98 14.996 13.98 14.996 12.98 14.996 11.98 14.996 10.98 14.996 9.98 14.996 8.98 14.996 7.98 14.996 6.98 14.996 5.98 14.996 4.98 14.996 3.98 14.996 2.98 14.996 1.98 13.996 1.98"/>
  </g>
  <g>
    <polygon class="cls-5" points="7.996 10.98 6.996 10.98 5.996 10.98 5.996 11.98 6.996 11.98 7.996 11.98 8.996 11.98 9.996 11.98 9.996 10.98 8.996 10.98 7.996 10.98"/>
    <rect class="cls-5" x="9.996" y="9.98" width="1" height="1"/>
    <rect class="cls-5" x="4.996" y="9.98" width="1" height="1"/>
    <rect class="cls-5" x="6.996" y="6.98" width="1" height="1"/>
    <rect class="cls-5" x="9.996" y="4.98" width="1" height="1"/>
    <rect class="cls-5" x="4.996" y="4.98" width="1" height="1"/>
    <polygon class="cls-5" points="8.996 3.98 7.996 3.98 6.996 3.98 5.996 3.98 5.996 4.98 6.996 4.98 7.996 4.98 8.996 4.98 9.996 4.98 9.996 3.98 8.996 3.98"/>
    <polygon class="cls-5" points=".996 2.98 .996 3.98 .996 4.98 .996 5.98 .996 6.98 .996 7.98 .996 8.98 .996 9.98 .996 10.98 .996 11.98 .996 12.98 .996 13.98 1.996 13.98 1.996 12.98 1.996 11.98 1.996 10.98 1.996 9.98 1.996 8.98 1.996 7.98 1.996 6.98 1.996 5.98 1.996 4.98 1.996 3.98 1.996 2.98 1.996 1.98 .996 1.98 .996 2.98"/>
    <polygon class="cls-5" points="12.996 .98 11.996 .98 10.996 .98 9.996 .98 8.996 .98 7.996 .98 6.996 .98 5.996 .98 4.996 .98 3.996 .98 2.996 .98 1.996 .98 1.996 1.98 2.996 1.98 3.996 1.98 4.996 1.98 5.996 1.98 6.996 1.98 7.996 1.98 8.996 1.98 9.996 1.98 10.996 1.98 11.996 1.98 12.996 1.98 13.996 1.98 13.996 .98 12.996 .98"/>
  </g>
  <g>
    <rect class="cls-4" x="13.996" y="13.98" width="1" height="1"/>
    <rect class="cls-4" x=".996" y="13.98" width="1" height="1"/>
    <rect class="cls-4" x="10.996" y="8.98" width="1" height="1"/>
    <rect class="cls-4" x="3.996" y="8.98" width="1" height="1"/>
    <polygon class="cls-4" points="11.996 7.98 11.996 8.98 12.996 8.98 12.996 7.98 12.996 6.98 11.996 6.98 11.996 7.98"/>
    <polygon class="cls-4" points="2.996 7.98 2.996 8.98 3.996 8.98 3.996 7.98 3.996 6.98 2.996 6.98 2.996 7.98"/>
    <rect class="cls-4" x="10.996" y="5.98" width="1" height="1"/>
    <rect class="cls-4" x="3.996" y="5.98" width="1" height="1"/>
    <rect class="cls-4" x="13.996" y=".98" width="1" height="1"/>
    <rect class="cls-4" x=".996" y=".98" width="1" height="1"/>
  </g>
  <g>
    <polygon class="cls-1" points="12.996 14.98 11.996 14.98 10.996 14.98 9.996 14.98 8.996 14.98 7.996 14.98 6.996 14.98 5.996 14.98 4.996 14.98 3.996 14.98 2.996 14.98 1.996 14.98 .996 14.98 .996 15.98 1.996 15.98 2.996 15.98 3.996 15.98 4.996 15.98 5.996 15.98 6.996 15.98 7.996 15.98 8.996 15.98 9.996 15.98 10.996 15.98 11.996 15.98 12.996 15.98 13.996 15.98 14.996 15.98 14.996 14.98 13.996 14.98 12.996 14.98"/>
    <polygon class="cls-1" points=".996 12.98 .996 11.98 .996 10.98 .996 9.98 .996 8.98 .996 7.98 .996 6.98 .996 5.98 .996 4.98 .996 3.98 .996 2.98 .996 1.98 .996 .98 -.004 .98 -.004 1.98 -.004 2.98 -.004 3.98 -.004 4.98 -.004 5.98 -.004 6.98 -.004 7.98 -.004 8.98 -.004 9.98 -.004 10.98 -.004 11.98 -.004 12.98 -.004 13.98 -.004 14.98 .996 14.98 .996 13.98 .996 12.98"/>
    <path class="cls-1" d="M10.996,7.98v-2h-1v-1h-4v1h-1v4h1v1h4v-1h1v-2ZM8.996,8.98h-2v-2h2v2Z"/>
    <path class="cls-1" d="M11.996,1.98H1.996v12h12V1.98h-2ZM12.996,7.98v1h-1v1h-1v1h-1v1h-4v-1h-1v-1h-1v-1h-1v-2h1v-1h1v-1h1v-1h4v1h1v1h1v1h1v1Z"/>
    <polygon class="cls-1" points="14.996 .98 14.996 1.98 14.996 2.98 14.996 3.98 14.996 4.98 14.996 5.98 14.996 6.98 14.996 7.98 14.996 8.98 14.996 9.98 14.996 10.98 14.996 11.98 14.996 12.98 14.996 13.98 14.996 14.98 15.996 14.98 15.996 13.98 15.996 12.98 15.996 11.98 15.996 10.98 15.996 9.98 15.996 8.98 15.996 7.98 15.996 6.98 15.996 5.98 15.996 4.98 15.996 3.98 15.996 2.98 15.996 1.98 15.996 .98 14.996 .98"/>
    <polygon class="cls-1" points="2.996 .98 3.996 .98 4.996 .98 5.996 .98 6.996 .98 7.996 .98 8.996 .98 9.996 .98 10.996 .98 11.996 .98 12.996 .98 13.996 .98 14.996 .98 14.996 -.02 13.996 -.02 12.996 -.02 11.996 -.02 10.996 -.02 9.996 -.02 8.996 -.02 7.996 -.02 6.996 -.02 5.996 -.02 4.996 -.02 3.996 -.02 2.996 -.02 1.996 -.02 .996 -.02 .996 .98 1.996 .98 2.996 .98"/>
  </g>
</svg>