<?xml version="1.0" encoding="UTF-8"?>
<svg id="weapon" xmlns="http://www.w3.org/2000/svg" version="1.1" viewBox="0 0 16 16">
  <!-- Generator: Adobe Illustrator 29.8.2, SVG Export Plug-In . SVG Version: 2.1.1 Build 3)  -->
  <defs>
    <style>
      .st0 {
        fill: #181818;
      }

      .st1 {
        fill: #8f077f;
      }

      .st2 {
        fill: silver;
      }

      .st3 {
        fill: #c757a7;
      }

      .st4 {
        fill: #888;
      }

      .st5 {
        fill: #f8f8f8;
      }
    </style>
  </defs>
  <rect class="st2" x="7" y="10.99" width="1" height="1"/>
  <rect class="st2" x="5" y="8.99" width="1" height="1"/>
  <rect class="st2" x="6" y="7.99" width="1" height="1"/>
  <rect class="st2" x="4" y="7.99" width="1" height="1"/>
  <rect class="st2" x="7" y="6.99" width="1" height="1"/>
  <rect class="st2" x="8" y="5.99" width="1" height="1"/>
  <polygon class="st3" points="12 3.99 12 4.99 11 4.99 11 5.99 10 5.99 10 6.99 11 6.99 11 7.99 12 7.99 12 6.99 13 6.99 13 5.99 13 4.99 13 3.99 12 3.99"/>
  <g>
    <rect class="st4" x="7" y="12.99" width="1" height="1"/>
    <rect class="st4" x="8" y="11.99" width="1" height="1"/>
    <rect class="st4" x="6" y="9.99" width="1" height="1"/>
    <rect class="st4" x="7" y="8.99" width="1" height="1"/>
    <polygon class="st4" points="10 7.99 10 6.99 9 6.99 9 7.99 8 7.99 8 8.99 9 8.99 10 8.99 11 8.99 11 7.99 10 7.99"/>
    <rect class="st4" x="2" y="7.99" width="1" height="1"/>
    <rect class="st4" x="3" y="6.99" width="1" height="1"/>
    <rect class="st4" x="7" y="3.99" width="1" height="1"/>
  </g>
  <polygon class="st1" points="11 2.99 10 2.99 9 2.99 9 3.99 9 4.99 9 5.99 10 5.99 11 5.99 11 4.99 10 4.99 10 3.99 11 3.99 11 4.99 12 4.99 12 3.99 12 2.99 11 2.99"/>
  <g>
    <rect class="st5" x="7" y="11.99" width="1" height="1"/>
    <polygon class="st5" points="8 10.99 8 11.99 9 11.99 9 10.99 9 9.99 8 9.99 8 10.99"/>
    <rect class="st5" x="5" y="9.99" width="1" height="1"/>
    <rect class="st5" x="6" y="8.99" width="1" height="1"/>
    <rect class="st5" x="3" y="7.99" width="1" height="1"/>
    <rect class="st5" x="8" y="6.99" width="1" height="1"/>
    <polygon class="st5" points="6 7.99 6 6.99 5 6.99 4 6.99 4 7.99 5 7.99 6 7.99"/>
    <polygon class="st5" points="8 4.99 7 4.99 7 5.99 7 6.99 8 6.99 8 5.99 8 4.99"/>
    <rect class="st5" x="10" y="3.99" width="1" height="1"/>
    <path class="st5" d="M14,.99H1v14h14V.99h-1ZM14,2.99v11H2V1.99h12v1Z"/>
  </g>
  <g>
    <polygon class="st0" points="13 14.99 12 14.99 11 14.99 10 14.99 9 14.99 8 14.99 7 14.99 6 14.99 5 14.99 4 14.99 3 14.99 2 14.99 1 14.99 1 15.99 2 15.99 3 15.99 4 15.99 5 15.99 6 15.99 7 15.99 8 15.99 9 15.99 10 15.99 11 15.99 12 15.99 13 15.99 14 15.99 15 15.99 15 14.99 14 14.99 13 14.99"/>
    <polygon class="st0" points="1 12.99 1 11.99 1 10.99 1 9.99 1 8.99 1 7.99 1 6.99 1 5.99 1 4.99 1 3.99 1 2.99 1 1.99 1 .99 0 .99 0 1.99 0 2.99 0 3.99 0 4.99 0 5.99 0 6.99 0 7.99 0 8.99 0 9.99 0 10.99 0 11.99 0 12.99 0 13.99 0 14.99 1 14.99 1 13.99 1 12.99"/>
    <polygon class="st0" points="5 10.99 5 9.99 5 8.99 4 8.99 3 8.99 2 8.99 2 9.99 2 10.99 2 11.99 2 12.99 2 13.99 3 13.99 4 13.99 5 13.99 6 13.99 7 13.99 7 12.99 7 11.99 7 10.99 6 10.99 5 10.99"/>
    <rect class="st0" x="7" y="9.99" width="1" height="1"/>
    <rect class="st0" x="7" y="7.99" width="1" height="1"/>
    <rect class="st0" x="5" y="7.99" width="1" height="1"/>
    <rect class="st0" x="10" y="6.99" width="1" height="1"/>
    <rect class="st0" x="9" y="5.99" width="1" height="1"/>
    <polygon class="st0" points="12 1.99 11 1.99 10 1.99 9 1.99 8 1.99 7 1.99 6 1.99 5 1.99 4 1.99 3 1.99 2 1.99 2 2.99 2 3.99 2 4.99 2 5.99 2 6.99 2 7.99 3 7.99 3 6.99 4 6.99 5 6.99 6 6.99 6 7.99 7 7.99 7 6.99 7 5.99 7 4.99 7 3.99 8 3.99 8 4.99 8 5.99 9 5.99 9 4.99 9 3.99 9 2.99 10 2.99 11 2.99 12 2.99 12 3.99 13 3.99 13 4.99 13 5.99 13 6.99 12 6.99 12 7.99 11 7.99 11 8.99 10 8.99 9 8.99 8 8.99 8 9.99 9 9.99 9 10.99 9 11.99 9 12.99 8 12.99 8 13.99 9 13.99 10 13.99 11 13.99 12 13.99 13 13.99 14 13.99 14 12.99 14 11.99 14 10.99 14 9.99 14 8.99 14 7.99 14 6.99 14 5.99 14 4.99 14 3.99 14 2.99 14 1.99 13 1.99 12 1.99"/>
    <polygon class="st0" points="15 .99 15 1.99 15 2.99 15 3.99 15 4.99 15 5.99 15 6.99 15 7.99 15 8.99 15 9.99 15 10.99 15 11.99 15 12.99 15 13.99 15 14.99 16 14.99 16 13.99 16 12.99 16 11.99 16 10.99 16 9.99 16 8.99 16 7.99 16 6.99 16 5.99 16 4.99 16 3.99 16 2.99 16 1.99 16 .99 15 .99"/>
    <polygon class="st0" points="3 .99 4 .99 5 .99 6 .99 7 .99 8 .99 9 .99 10 .99 11 .99 12 .99 13 .99 14 .99 15 .99 15 0 14 0 13 0 12 0 11 0 10 0 9 0 8 0 7 0 6 0 5 0 4 0 3 0 2 0 1 0 1 .99 2 .99 3 .99"/>
  </g>
</svg>